<?xml version="1.0" encoding="UTF-8"?>
<!DOCTYPE svg PUBLIC "-//W3C//DTD SVG 1.1//EN" "http://www.w3.org/Graphics/SVG/1.1/DTD/svg11.dtd">
<!-- Creator: CorelDRAW X7 -->
<svg xmlns="http://www.w3.org/2000/svg" xml:space="preserve" width="121.825mm" height="61.5572mm" version="1.1" style="shape-rendering:geometricPrecision; text-rendering:geometricPrecision; image-rendering:optimizeQuality; fill-rule:evenodd; clip-rule:evenodd"
viewBox="0 0 12226 6178"
 xmlns:xlink="http://www.w3.org/1999/xlink">
 <defs>
  <style type="text/css">
   <![CDATA[
    .fil0 {fill:#FEFEFE}
    .fil2 {fill:#BDBFC1}
    .fil1 {fill:#96989A}
    .fil3 {fill:#848688}
    .fil5 {fill:#00BBFF}
    .fil7 {fill:#B6CAC9}
    .fil4 {fill:#F4A642}
    .fil6 {fill:#FD610C}
    .fil8 {fill:#00BBFF;fill-rule:nonzero}
   ]]>
  </style>
 </defs>
 <g id="Capa_x0020_1">
  <metadata id="CorelCorpID_0Corel-Layer"/>
  <g id="_873954480">
   <g>
    <path class="fil0" d="M1406 668c-402,61 -710,409 -710,827 0,463 375,838 838,838 462,0 837,-375 837,-838 0,-280 -138,-528 -350,-680l0 -271c346,177 582,537 582,951 0,591 -479,1070 -1069,1070 -591,0 -1070,-479 -1070,-1070 0,-551 418,-1006 955,-1063l-163 -163 0 -269 543 543 -543 544 0 -269 150 -150z"/>
    <path class="fil0" d="M10116 725c46,7 90,19 132,36l51 -88 130 75 -51 88c36,28 69,61 97,97l88 -51 75 130 -88 51c18,42 30,86 36,133l102 0 0 150 -102 0c-6,46 -18,91 -36,133l88 50 -75 130 -88 -51c-28,37 -61,69 -97,98l51 88 -130 75 -51 -88c-42,17 -86,29 -132,35l0 102 -151 0 0 -102c-46,-6 -90,-18 -132,-35l-51 88 -130 -75 51 -88c-36,-29 -69,-61 -97,-98l-88 51 -75 -130 88 -50c-18,-42 -30,-87 -36,-133l-102 0 0 -150 102 0c6,-47 18,-91 36,-133l-88 -51 75 -130 88 51c28,-36 61,-69 97,-97l-51 -88 130 -75 51 88c42,-17 86,-29 132,-36l0 -101 151 0 0 101zm-75 188c197,0 357,160 357,358 0,197 -160,357 -357,357 -198,0 -358,-160 -358,-357 0,-198 160,-358 358,-358z"/>
    <rect class="fil1" x="1738" y="1164" width="8383" height="4734" rx="213" ry="213"/>
    <rect class="fil0" x="1998" y="1394" width="7863" height="4274"/>
    <rect class="fil2" x="789" y="5893" width="10101" height="184"/>
    <polygon class="fil3" points="1189,6178 10490,6178 10889,6077 789,6077 "/>
    <g>
     <path class="fil4" d="M3852 3167c86,12 168,34 245,66l94 -163 241 139 -94 163c67,52 127,113 179,180l163 -94 139 240 -163 94c32,78 54,160 66,246l188 0 0 277 -188 0c-12,86 -34,168 -66,246l163 94 -139 240 -163 -94c-52,67 -112,128 -179,180l94 163 -241 139 -94 -163c-77,31 -159,54 -245,66l0 188 -278 0 0 -188c-86,-12 -168,-35 -245,-66l-94 163 -241 -139 94 -163c-67,-52 -127,-113 -179,-180l-163 94 -139 -240 162 -94c-31,-78 -54,-160 -65,-246l-188 0 0 -277 188 0c11,-86 34,-168 65,-246l-162 -94 139 -240 163 94c52,-67 112,-128 179,-180l-94 -163 241 -139 94 163c77,-32 159,-54 245,-66l0 -188 278 0 0 188zm-139 348c365,0 661,296 661,661 0,366 -296,662 -661,662 -365,0 -661,-296 -661,-662 0,-365 296,-661 661,-661z"/>
     <path class="fil5" d="M5119 2480c37,10 73,25 105,44l116 -116 148 148 -116 116c19,33 34,68 44,105l164 0 0 210 -164 0c-10,37 -25,72 -44,104l116 116 -148 149 -116 -116c-32,19 -68,34 -105,43l0 164 -209 0 0 -164c-38,-9 -73,-24 -105,-43l-116 116 -148 -149 115 -115c-19,-33 -33,-68 -43,-105l-164 0 0 -210 164 0c10,-37 24,-72 43,-105l-116 -116 149 -148 116 116c32,-19 67,-34 105,-44l0 -163 209 0 0 163zm-105 135c148,0 267,119 267,267 0,147 -119,267 -267,267 -147,0 -267,-120 -267,-267 0,-148 120,-267 267,-267z"/>
     <path class="fil6" d="M4140 2379c21,5 41,13 58,24l65 -64 82 82 -65 64c11,18 19,37 25,58l90 0 0 116 -90 0c-6,20 -14,40 -25,58l65 64 -82 82 -65 -64c-17,10 -37,18 -58,24l0 90 -116 0 0 -90c-20,-6 -40,-14 -58,-24l-64 64 -82 -82 64 -64c-10,-18 -18,-38 -24,-58l-90 0 0 -116 90 0c6,-21 14,-40 24,-58l-64 -64 82 -82 64 64c18,-11 38,-19 58,-24l0 -91 116 0 0 91zm-58 74c82,0 148,66 148,148 0,81 -66,147 -148,147 -81,0 -147,-66 -147,-147 0,-82 66,-148 147,-148z"/>
     <circle class="fil7" cx="2620" cy="1771" r="185"/>
     <rect class="fil7" x="3046" y="1723" width="1374" height="104"/>
     <rect class="fil7" x="5539" y="1723" width="614" height="104"/>
     <rect class="fil7" x="6357" y="1723" width="614" height="104"/>
     <rect class="fil7" x="7175" y="1723" width="614" height="104"/>
     <rect class="fil7" x="7993" y="1723" width="614" height="104"/>
     <rect class="fil7" x="8811" y="1723" width="614" height="104"/>
     <g>
      <rect class="fil7" x="5899" y="2409" width="1383" height="190"/>
      <g>
       <rect class="fil7" x="5889" y="2794" width="3506.02" height="77.9093"/>
       <rect class="fil7" x="5889" y="3011" width="3506.02" height="77.9093"/>
       <rect class="fil7" x="5889" y="3228" width="3506.02" height="77.9093"/>
       <rect class="fil7" x="5889" y="3444" width="3506.02" height="77.9093"/>
       <rect class="fil7" x="5889" y="3661" width="2765.94" height="77.9093"/>
      </g>
     </g>
     <g>
      <rect class="fil7" x="5899" y="4026" width="1383" height="190"/>
      <g>
       <rect class="fil7" x="5889" y="4411" width="3506.02" height="77.9093"/>
       <rect class="fil7" x="5889" y="4628" width="3506.02" height="77.9093"/>
       <rect class="fil7" x="5889" y="4844" width="3506.02" height="77.9093"/>
       <rect class="fil7" x="5889" y="5061" width="3506.02" height="77.9093"/>
       <rect class="fil7" x="5889" y="5278" width="1918.73" height="77.9093"/>
      </g>
     </g>
    </g>
    <path class="fil0" d="M10945 2143c26,4 50,10 73,20l28 -49 72 42 -28 48c20,15 38,33 53,53l49 -28 41 72 -49 28c10,23 16,47 20,73l56 0 0 82 -56 0c-4,26 -10,50 -20,73l49 28 -41 71 -49 -28c-15,20 -33,38 -53,54l28 48 -72 42 -28 -49c-23,10 -47,16 -73,20l0 56 -82 0 0 -56c-26,-4 -50,-10 -73,-20l-28 49 -71 -42 28 -48c-20,-16 -38,-34 -54,-54l-48 28 -41 -71 48 -28c-9,-23 -16,-47 -20,-73l-55 0 0 -82 55 0c4,-26 11,-50 20,-73l-48 -28 41 -72 48 28c16,-20 34,-38 54,-53l-28 -48 71 -42 28 49c23,-10 47,-16 73,-20l0 -56 82 0 0 56zm-41 103c109,0 197,88 197,197 0,108 -88,196 -197,196 -108,0 -196,-88 -196,-196 0,-109 88,-197 196,-197z"/>
    <path class="fil5" d="M11912 3727c25,3 50,10 73,19l28 -48 71 41 -28 48c20,16 38,34 54,54l48 -28 41 71 -48 28c9,23 16,48 19,73l56 0 0 83 -56 0c-3,25 -10,49 -19,72l48 28 -41 72 -48 -28c-16,20 -34,38 -54,53l28 49 -71 41 -28 -48c-23,9 -48,16 -73,19l0 56 -83 0 0 -56c-25,-3 -49,-10 -72,-19l-28 48 -72 -41 28 -49c-20,-15 -38,-33 -53,-53l-49 28 -41 -72 48 -28c-9,-23 -16,-47 -19,-72l-56 0 0 -83 56 0c3,-25 10,-50 19,-73l-48 -28 41 -71 49 28c15,-20 33,-38 53,-54l-28 -48 72 -41 28 48c23,-9 47,-16 72,-19l0 -56 83 0 0 56zm-41 103c108,0 196,88 196,196 0,109 -88,197 -196,197 -109,0 -197,-88 -197,-197 0,-108 88,-196 197,-196z"/>
    <circle class="fil5" cx="780" cy="4483" r="780"/>
    <path class="fil0" d="M725 4166c-166,25 -293,169 -293,342 0,190 155,345 346,345 190,0 345,-155 345,-345 0,-116 -57,-219 -144,-281l0 -112c143,73 240,221 240,393 0,243 -198,441 -441,441 -244,0 -442,-198 -442,-441 0,-228 173,-416 394,-439l-67 -68 0 -111 224 224 -224 225 0 -111 62 -62z"/>
   </g>
   <path class="fil8" d="M6055 2148l0 -30 110 0 0 96c-17,13 -34,23 -52,30 -18,7 -36,10 -55,10 -26,0 -49,-5 -69,-16 -21,-11 -37,-27 -47,-47 -11,-21 -16,-44 -16,-69 0,-25 5,-49 15,-71 11,-22 26,-38 46,-48 20,-11 42,-16 68,-16 19,0 36,3 51,9 15,6 27,14 35,25 9,11 15,25 20,43l-31 8c-4,-13 -9,-23 -14,-31 -6,-8 -14,-14 -25,-18 -11,-5 -23,-7 -36,-7 -15,0 -29,3 -40,7 -12,5 -21,11 -28,19 -7,8 -12,16 -16,26 -7,16 -10,33 -10,52 0,23 4,42 12,58 8,15 19,27 35,35 15,7 31,11 48,11 15,0 29,-3 43,-9 14,-6 25,-12 32,-18l0 -49 -76 0z"/>
   <path id="1" class="fil8" d="M6339 2189l33 4c-5,20 -15,34 -29,45 -14,11 -31,16 -53,16 -27,0 -49,-9 -65,-25 -16,-17 -24,-41 -24,-71 0,-32 8,-56 24,-74 16,-17 37,-26 63,-26 25,0 46,9 61,26 16,17 24,41 24,72 0,2 0,4 0,8l-140 0c2,21 7,37 18,47 10,11 23,17 39,17 12,0 21,-3 30,-9 8,-7 14,-16 19,-30zm-104 -51l105 0c-2,-16 -6,-27 -12,-35 -10,-12 -24,-19 -40,-19 -14,0 -26,5 -36,15 -10,10 -16,23 -17,39z"/>
   <path id="2" class="fil8" d="M6400 2194l31 -5c2,12 7,22 15,29 8,6 19,10 34,10 14,0 25,-3 32,-9 7,-6 11,-13 11,-21 0,-7 -3,-13 -10,-17 -4,-3 -15,-6 -32,-11 -23,-6 -40,-11 -49,-15 -9,-4 -15,-10 -20,-18 -5,-7 -7,-16 -7,-25 0,-8 2,-16 6,-23 4,-7 9,-13 15,-18 5,-3 12,-6 21,-9 8,-2 17,-4 27,-4 15,0 27,2 39,7 11,4 19,10 24,17 5,7 9,17 11,29l-31 4c-1,-9 -5,-17 -12,-22 -7,-6 -16,-9 -29,-9 -14,0 -25,3 -31,8 -6,4 -9,10 -9,17 0,4 1,7 4,11 2,3 6,6 12,8 3,1 12,4 28,8 22,6 38,11 47,15 9,4 16,9 21,17 5,7 7,16 7,27 0,10 -3,20 -9,29 -6,10 -15,17 -27,22 -11,5 -25,8 -39,8 -25,0 -43,-5 -56,-15 -13,-10 -21,-25 -24,-45z"/>
   <path id="3" class="fil8" d="M6662 2221l4 29c-9,1 -17,2 -24,2 -11,0 -20,-1 -26,-5 -7,-4 -11,-9 -14,-14 -2,-6 -4,-19 -4,-38l0 -108 -23 0 0 -25 23 0 0 -46 32 -19 0 65 32 0 0 25 -32 0 0 110c0,9 1,15 2,17 1,3 3,5 5,6 3,2 6,3 11,3 4,0 8,-1 14,-2z"/>
   <path id="4" class="fil8" d="M6681 2156c0,-35 10,-60 29,-77 16,-14 36,-21 59,-21 26,0 47,9 63,26 17,16 25,40 25,69 0,25 -4,43 -11,57 -7,14 -18,25 -32,32 -13,8 -28,12 -45,12 -26,0 -47,-9 -63,-25 -17,-17 -25,-41 -25,-73zm33 0c0,24 5,42 16,54 10,12 23,18 39,18 16,0 29,-6 40,-18 10,-12 15,-30 15,-55 0,-23 -5,-40 -15,-52 -11,-12 -24,-18 -40,-18 -16,0 -29,6 -39,18 -11,11 -16,29 -16,53z"/>
   <path id="5" class="fil8" d="M6894 2250l0 -188 28 0 0 29c8,-13 14,-22 21,-26 6,-5 13,-7 20,-7 11,0 22,4 33,10l-12 30c-7,-5 -15,-7 -23,-7 -7,0 -13,2 -18,7 -6,4 -10,9 -12,17 -4,11 -5,23 -5,37l0 98 -32 0z"/>
   <path id="6" class="fil8" d="M7236 2250l0 -24c-12,19 -30,28 -53,28 -14,0 -28,-4 -41,-13 -12,-8 -22,-19 -29,-34 -7,-15 -10,-32 -10,-51 0,-18 3,-35 9,-51 6,-15 16,-26 28,-34 13,-9 27,-13 42,-13 11,0 21,3 30,8 9,4 16,11 22,18l0 -93 31 0 0 259 -29 0zm-101 -94c0,24 5,42 16,54 10,12 22,18 35,18 14,0 26,-6 36,-17 10,-11 15,-29 15,-52 0,-26 -5,-44 -15,-56 -10,-12 -22,-18 -37,-18 -14,0 -26,5 -35,17 -10,11 -15,30 -15,54z"/>
   <path id="7" class="fil8" d="M7444 2189l32 4c-5,20 -14,34 -28,45 -14,11 -32,16 -54,16 -27,0 -49,-9 -65,-25 -16,-17 -24,-41 -24,-71 0,-32 8,-56 24,-74 17,-17 38,-26 64,-26 25,0 45,9 61,26 16,17 24,41 24,72 0,2 -1,4 -1,8l-139 0c1,21 7,37 17,47 11,11 24,17 39,17 12,0 22,-3 30,-9 8,-7 15,-16 20,-30zm-104 -51l104 0c-1,-16 -5,-27 -12,-35 -10,-12 -23,-19 -39,-19 -15,0 -27,5 -37,15 -10,10 -15,23 -16,39z"/>
   <path id="8" class="fil8" d="M7805 2159l34 9c-7,28 -20,49 -38,64 -19,15 -42,22 -68,22 -28,0 -51,-5 -68,-17 -18,-11 -31,-28 -40,-49 -9,-22 -14,-45 -14,-69 0,-27 5,-51 16,-71 10,-20 25,-35 44,-46 18,-10 39,-15 62,-15 26,0 48,6 65,20 18,13 30,31 37,55l-33 8c-6,-19 -15,-32 -27,-41 -11,-9 -25,-13 -42,-13 -20,0 -37,5 -50,14 -14,10 -23,23 -28,39 -6,16 -8,32 -8,49 0,22 3,42 9,58 7,16 16,29 30,37 13,8 28,12 44,12 19,0 35,-6 48,-17 14,-11 22,-27 27,-49z"/>
   <path id="9" class="fil8" d="M7866 2156c0,-35 10,-60 29,-77 16,-14 36,-21 59,-21 26,0 47,9 63,26 16,16 24,40 24,69 0,25 -3,43 -10,57 -8,14 -18,25 -32,32 -14,8 -29,12 -45,12 -26,0 -48,-9 -64,-25 -16,-17 -24,-41 -24,-73zm32 0c0,24 6,42 16,54 11,12 24,18 40,18 16,0 29,-6 39,-18 11,-12 16,-30 16,-55 0,-23 -5,-40 -16,-52 -10,-12 -24,-18 -39,-18 -16,0 -29,6 -40,18 -10,11 -16,29 -16,53z"/>
   <path id="10" class="fil8" d="M8079 2250l0 -188 28 0 0 27c14,-20 34,-31 60,-31 11,0 22,2 31,6 9,5 17,10 21,16 5,7 8,15 10,24 1,6 2,16 2,31l0 115 -32 0 0 -114c0,-13 -1,-23 -4,-29 -2,-6 -6,-12 -13,-15 -6,-4 -13,-6 -22,-6 -13,0 -25,4 -35,13 -10,8 -14,25 -14,49l0 102 -32 0z"/>
   <path id="11" class="fil8" d="M8349 2221l4 29c-9,1 -17,2 -24,2 -11,0 -20,-1 -27,-5 -6,-4 -10,-9 -13,-14 -3,-6 -4,-19 -4,-38l0 -108 -23 0 0 -25 23 0 0 -46 32 -19 0 65 32 0 0 25 -32 0 0 110c0,9 0,15 2,17 1,3 2,5 5,6 3,2 6,3 11,3 3,0 8,-1 14,-2z"/>
   <path id="12" class="fil8" d="M8508 2189l33 4c-5,20 -15,34 -29,45 -14,11 -32,16 -53,16 -28,0 -49,-9 -65,-25 -16,-17 -24,-41 -24,-71 0,-32 8,-56 24,-74 16,-17 37,-26 63,-26 25,0 45,9 61,26 16,17 24,41 24,72 0,2 0,4 0,8l-140 0c1,21 7,37 18,47 10,11 23,17 39,17 11,0 21,-3 29,-9 9,-7 15,-16 20,-30zm-104 -51l104 0c-1,-16 -5,-27 -12,-35 -10,-12 -23,-19 -39,-19 -15,0 -27,5 -37,15 -10,10 -15,23 -16,39z"/>
   <path id="13" class="fil8" d="M8581 2250l0 -188 28 0 0 27c14,-20 34,-31 60,-31 11,0 22,2 31,6 10,5 17,10 21,16 5,7 8,15 10,24 1,6 2,16 2,31l0 115 -32 0 0 -114c0,-13 -1,-23 -3,-29 -3,-6 -7,-12 -14,-15 -6,-4 -13,-6 -22,-6 -13,0 -25,4 -35,13 -9,8 -14,25 -14,49l0 102 -32 0z"/>
   <path id="14" class="fil8" d="M8782 2027l0 -36 32 0 0 36 -32 0zm0 223l0 -188 32 0 0 188 -32 0z"/>
   <path id="15" class="fil8" d="M8983 2250l0 -24c-12,19 -29,28 -52,28 -15,0 -29,-4 -41,-13 -13,-8 -23,-19 -30,-34 -6,-15 -10,-32 -10,-51 0,-18 3,-35 10,-51 6,-15 15,-26 28,-34 12,-9 26,-13 41,-13 12,0 22,3 30,8 9,4 16,11 22,18l0 -93 32 0 0 259 -30 0zm-100 -94c0,24 5,42 15,54 10,12 22,18 36,18 14,0 26,-6 35,-17 10,-11 15,-29 15,-52 0,-26 -5,-44 -15,-56 -10,-12 -22,-18 -37,-18 -14,0 -26,5 -35,17 -10,11 -14,30 -14,54z"/>
   <path id="16" class="fil8" d="M9051 2156c0,-35 10,-60 29,-77 16,-14 36,-21 59,-21 26,0 47,9 63,26 16,16 25,40 25,69 0,25 -4,43 -11,57 -7,14 -18,25 -32,32 -14,8 -29,12 -45,12 -26,0 -47,-9 -64,-25 -16,-17 -24,-41 -24,-73zm33 0c0,24 5,42 15,54 11,12 24,18 40,18 16,0 29,-6 39,-18 11,-12 16,-30 16,-55 0,-23 -5,-40 -16,-52 -10,-12 -23,-18 -39,-18 -16,0 -29,6 -40,18 -10,11 -15,29 -15,53z"/>
   <path id="17" class="fil8" d="M9251 2194l32 -5c1,12 6,22 14,29 9,6 20,10 34,10 15,0 26,-3 33,-9 7,-6 10,-13 10,-21 0,-7 -3,-13 -9,-17 -4,-3 -15,-6 -33,-11 -23,-6 -39,-11 -48,-15 -9,-4 -16,-10 -20,-18 -5,-7 -7,-16 -7,-25 0,-8 2,-16 5,-23 4,-7 9,-13 16,-18 5,-3 12,-6 20,-9 9,-2 18,-4 28,-4 14,0 27,2 38,7 11,4 20,10 25,17 5,7 9,17 11,29l-31 4c-2,-9 -6,-17 -13,-22 -6,-6 -16,-9 -28,-9 -15,0 -25,3 -31,8 -6,4 -10,10 -10,17 0,4 2,7 4,11 3,3 7,6 12,8 4,1 13,4 28,8 23,6 38,11 47,15 9,4 16,9 21,17 5,7 8,16 8,27 0,10 -3,20 -9,29 -6,10 -15,17 -27,22 -12,5 -25,8 -40,8 -24,0 -43,-5 -55,-15 -13,-10 -21,-25 -25,-45z"/>
  </g>
 </g>
</svg>
